<?xml version="1.0" encoding="utf-8"?>
<!-- Generator: Adobe Illustrator 19.0.0, SVG Export Plug-In . SVG Version: 6.00 Build 0)  -->
<svg version="1.1" id="layer" xmlns="http://www.w3.org/2000/svg" xmlns:xlink="http://www.w3.org/1999/xlink" x="0px" y="0px"
	 viewBox="-153 -46 652 652" style="enable-background:new -153 -46 652 652;" xml:space="preserve">
<style type="text/css">
	.st0{fill:white;}
</style>
<path d="M86.3,229.7c-23.4-0.5-42.7,18.1-43.1,41.5c0,0.6,0,1.2,0,1.8c-0.5,23.4,18,42.7,41.4,43.2c0.6,0,1.2,0,1.8,0
	c13,0.3,25.6-5.1,34.3-14.8l-11.9-11.9c-5.8,6.2-13.9,9.5-22.3,9.3c-14.1,0-24-11.5-24-25.8s9.9-25.8,24-25.8
	c7.9-0.3,15.5,2.8,20.9,8.5l12.5-12.5C111,234.1,98.8,229.2,86.3,229.7 M179.5,230.6H162l-35.6,84.2h18.9l6.6-15.9h37.7l6.6,15.9
	h18.9L179.5,230.6z M435.5,231.2h-38.2v83.6h18.4v-66.6h18.4c8.6,0,14.3,4.1,14.3,12.2s-5.7,12.2-14.3,12.2h-8.4v17l8.6,9.2
	c14.8,15.8,20.8,17.1,30.8,17.1c1.5,0,3,0,4.4-0.2v-15.8c-0.5,0.1-1,0.1-1.6,0.1c-5.7,0-10.8-2.6-18.8-10.6L446,286
	c12.5-2.4,21.4-13.5,21-26.2C467.1,240.9,453.2,231.1,435.5,231.2 M246.9,231.1h-18.4v83.6h60.1v-17.2h-41.7L246.9,231.1
	L246.9,231.1z M158.4,282.6l12.3-30l12.3,30H158.4z M337.5,298.8c-13.6,0-24.7-11.1-24.6-24.8c0-0.3,0-0.7,0-1
	c-0.7-13.6,9.8-25.1,23.4-25.8c13.6-0.7,25.1,9.8,25.8,23.4c0,0.8,0,1.6,0,2.4c0.7,13.5-9.7,25.1-23.3,25.8
	C338.3,298.7,337.9,298.8,337.5,298.8 M337.5,229.7c-23.6-0.4-43.1,18.5-43.5,42.1c0,0.4,0,0.7,0,1.1c0,24,19.5,43.5,43.5,43.4
	c24,0,43.4-19.5,43.4-43.4c0.2-23.6-18.7-43-42.4-43.2C338.2,229.7,337.8,229.7,337.5,229.7" fill="white"/>
<path class="st0" d="M10.1,273.6c0-26-14.3-49.8-37.2-62v20.9c22.7,18.2,26.4,51.3,8.2,74s-51.3,26.4-74,8.2
	c-22.7-18.2-26.4-51.3-8.2-74c2.4-3,5-5.6,8-8v-21.1c-34.2,18.3-47.2,60.8-28.9,95s60.8,47.2,95,28.9
	C-4.2,323.4,10.1,299.6,10.1,273.6z M-19,273.6c0-12.4-5.7-24.2-15.4-32c-2.7-1.9-4.3-5.1-4.3-8.4v-26.5c-5-1.6-10.2-2.7-15.5-3.1
	v29.4l0,0v8.5c-0.4,4.6,1.7,9,5.5,11.7c11.3,6.3,15.3,20.6,8.9,31.9c-6.3,11.3-20.6,15.3-31.9,8.9s-15.3-20.6-8.9-31.9
	c2.1-3.7,5.2-6.8,8.9-8.9c3.9-2.6,6.1-7,5.7-11.7v-38c-5.3,0.4-10.5,1.4-15.5,3v26.6c0,3.3-1.6,6.5-4.3,8.4
	c-17.6,14.2-20.4,40-6.2,57.7c14.2,17.6,40,20.4,57.7,6.2C-24.7,297.8-19,286-19,273.6L-19,273.6z" fill="white"/>
</svg>
