<?xml version="1.0" encoding="utf-8"?>
<!-- Generator: Adobe Illustrator 19.0.0, SVG Export Plug-In . SVG Version: 6.00 Build 0)  -->
<svg version="1.1" id="layer" xmlns="http://www.w3.org/2000/svg" xmlns:xlink="http://www.w3.org/1999/xlink" x="0px" y="0px"
	 viewBox="-153 -46 652 652" style="enable-background:new -153 -46 652 652;" xml:space="preserve">
<style type="text/css">
	.st0{fill:white;}
	.st1{fill:white;}
</style>
<path class="st0" d="M449.3,302.8v-13.6h-3.2c-5.2,0-5.2-2.7-5.2-10.4v-10.2h7.7v-13.8H441v-16.1h-22.2v16.1h-7.9v13.8h7.9v19.3
	c0,7.3,0.9,11.6,6.6,13.8c3.6,1.6,7.9,2,13.2,2C442.1,303.7,445.7,303.5,449.3,302.8 M409.6,286.7c0-7-3.2-10.4-10.4-12.9
	c-2.9-1.1-10.4-1.8-22.2-2.9c-7.9-0.7-11.4-0.5-11.4-3.6c0-2.5,2.3-3.4,7.5-3.4c5.9,0,8.6,1.1,9.1,4.8h25.2
	C406.7,257,396,252,374.9,252c-22.2,0-32.7,4.8-32.7,16.3c0,5.7,2.5,10,6.8,12c5.7,2.5,12.9,3.2,22,4.1c9.1,0.9,12.9,0.9,12.9,4.3
	c0,2-2.5,3.2-7.5,3.2c-5.7,0-8.4-1.1-8.6-4.8h-27c0.7,12.5,11.4,17.5,33.1,17.5C398.3,304.6,409.6,299.6,409.6,286.7 M313.4,281.3
	c0,6.1-5.9,10.7-15.9,10.7c-5.2,0-8.2-2-8.2-5s2.7-3.9,8.4-4.5c5.9-0.4,11.1-0.2,15.7-2.5V281.3z M337.7,302.8v-0.9
	c-1.8-1.4-2-3.4-2-6.6v-19.1c0-8.6-1.4-14.3-6.8-18.6c-4.5-3.6-13.4-5.5-26.3-5.5c-22.2,0-32.9,4.1-34,16.8h22.9
	c0.4-3.9,4.1-5,11.1-5c6.6,0,9.8,2,9.8,4.5c0,3.9-7,2.9-22.5,3.9c-10.7,0.9-18.2,1.4-22.7,7c-1.8,2-2.7,5.2-2.7,8.8
	c0,10.9,8.2,16.3,24.3,16.3c11.1-0.2,18.8-2.3,24.7-8.4c0,2.3,0.4,4.8,1.4,6.6H337.7z M262.4,267.9V254h-9.3v-0.7
	c0-2.7,1.4-3.6,4.5-3.6h4.8v-11.8c-5.7-0.2-10-0.5-13.2-0.5c-12.9,0-18.2,3.6-18.2,14.1v2.5h-8.2v13.8h8.2v34.9h22.5v-34.9H262.4z"
	fill="white"/>
<path class="st1" d="M-52.1,319.8C-52.1,319.9-52.1,319.9-52.1,319.8L-52.1,319.8z M217.7,238.8h-22.5v64h22.5V238.8z M183.2,238.8
	h-22.5v64h22.5V238.8z M131.2,272.9h-26.1c1.1-5.7,5.9-8.6,13.8-8.6C126.2,264.2,130.8,267.4,131.2,272.9 M153.9,283.3v-0.9
	c0-20-12.3-30.4-36.1-30.4c-22.9,0-35.2,9.8-35.2,26.3c0,16.3,12.3,26.3,35.2,26.3c20.4,0,32.4-5.9,35.6-16.8h-23.8
	c-1.6,2.5-5,3.9-10.7,3.9c-8.2,0-12.7-3.2-12.7-8.4H153.9z M79.5,281.3H56.1c-1.1,5.2-5.7,8.6-11.8,8.6c-7.3,0-12-4.5-12-11.8
	c0-7.3,4.8-11.6,12.5-11.6c5.5,0,9.1,2.3,10.7,6.8h23.8c-2-14.1-13.8-21.3-34.9-21.3c-22.9,0-35.4,9.8-35.4,26.3
	c0,16.3,12.5,26.3,35.4,26.3C66.1,304.6,77.9,296.7,79.5,281.3 M462.1,234.5c0-0.2,0-0.4-0.1-0.6c-0.1-0.2-0.2-0.3-0.4-0.4
	c-0.2-0.1-0.3-0.2-0.5-0.2c-0.2,0-0.4,0-0.7,0h-1v2.8h0.9c0.3,0,0.6,0,0.8-0.1c0.2-0.1,0.5-0.2,0.6-0.3c0.1-0.1,0.3-0.3,0.3-0.5
	C462.1,235,462.1,234.8,462.1,234.5 M465.1,240.3h-2l-2.5-3.2h-1.1v3.2h-1.5v-8.2h2.5c0.6,0,1,0,1.3,0.1c0.3,0,0.6,0.2,1,0.4
	c0.4,0.2,0.6,0.4,0.8,0.7c0.2,0.3,0.2,0.7,0.2,1.1c0,0.6-0.2,1.1-0.5,1.5c-0.3,0.4-0.8,0.7-1.3,0.9L465.1,240.3z M467.3,236.4
	c0-1.9-0.7-3.4-2-4.8c-1.3-1.3-2.9-2-4.7-2s-3.4,0.7-4.7,2c-1.3,1.3-2,2.9-2,4.8c0,1.9,0.7,3.5,2,4.8c1.3,1.3,2.9,2,4.7,2
	s3.4-0.7,4.7-2C466.7,239.9,467.3,238.3,467.3,236.4 M468.4,236.4c0,2.1-0.8,4-2.3,5.5c-1.5,1.5-3.3,2.3-5.5,2.3s-4-0.8-5.5-2.3
	c-1.5-1.5-2.3-3.3-2.3-5.5c0-2.1,0.8-4,2.3-5.5c1.5-1.5,3.3-2.3,5.5-2.3s4,0.7,5.5,2.3C467.6,232.5,468.4,234.3,468.4,236.4
	 M-79.1,232.7c-1.8-1.8-3.6-3.1-5.2-4.1c-3-1.8-5.4-2.4-5.7-2.4l-2.2-0.2c-0.4,0-0.8,0-1.2,0c-0.4,0-0.7,0-1.1,0.1
	c-0.4,0-0.7,0.1-1,0.2c-0.3,0.1-0.7,0.2-1,0.4c-0.4,0.2-0.9,0.5-1.3,0.8c-0.4,0.3-0.9,0.7-1.3,1.2c-0.4,0.5-0.9,1.1-1.4,1.7
	c-0.5,0.7-1,1.4-1.5,2.3c-0.8,1.3-1.6,2.4-2.5,3.2c-0.9,0.8-1.8,1.4-2.8,1.9c-0.9,0.4-1.8,0.7-2.7,0.9c-0.9,0.2-1.7,0.3-2.4,0.4
	l-0.2,0l-0.3,0l-0.3,0c-0.5,0.1-1,0.1-1.4,0.2c-0.4,0.1-0.7,0.2-1.1,0.3c-0.3,0.1-0.5,0.2-0.8,0.4c-0.2,0.2-0.4,0.3-0.6,0.6
	s-0.3,0.4-0.4,0.7c-0.1,0.2-0.2,0.5-0.2,0.8c-0.1,0.3-0.1,0.7-0.1,1c0,0.4,0,0.8,0,1.3c0,0.5,0,1.2,0.1,2c0.1,0.7,0.2,1.6,0.4,2.5
	c1.1,5.1,3.3,9.7,6.6,13.5c3.2,3.7,7.2,6.6,12.1,8.3l0,0h0c0.5,0.2,1.4,0.5,2.1,0.9c0.5,0.3,1,0.7,1.1,1.1l0,0l0,0
	c0,0.2,0,0.4,0,0.5c-0.1,0.2-0.2,0.3-0.4,0.4c-0.1,0.1-0.3,0.1-0.5,0.1c-0.2,0-0.3,0-0.5-0.1h0l0,0c-0.1,0-0.2,0-0.2-0.1
	c-0.1,0-0.1,0-0.1,0l0,0c-0.2,0-0.4-0.1-0.5-0.1c-0.2-0.1-0.4-0.1-0.7-0.2c-0.3-0.1-0.9-0.3-1.6-0.5c-0.6-0.2-1.5-0.4-2.4-0.7
	c-0.8-0.2-1.5-0.4-2.2-0.6c-0.7-0.2-1.3-0.4-1.9-0.6l-0.3-0.1l-0.3-0.1v0l-0.6-0.2c-1.9-0.6-3.5-1.1-4.9-1.5
	c-1.4-0.4-2.7-0.6-3.9-0.7c-3.3-0.2-7,0.8-9.7,2.8c-2.4,1.7-4.1,4.1-4.3,7.1c-0.1,1.4,0.1,2.8,0.4,4.2c0.3,1.4,0.8,2.7,1.2,3.7l0,0
	v0l0,0c0.1,0.4,0.2,0.8,0.2,1.2c0.1,0.4,0.1,0.9,0.1,1.4c0,0.5,0,1,0,1.5c0,0.5-0.1,1-0.2,1.5c-0.1,0.5-0.2,1-0.3,1.4
	c-0.1,0.4-0.2,0.9-0.4,1.2c-0.1,0.4-0.3,0.7-0.5,1c-0.1,0.2-0.3,0.5-0.4,0.6v0l-0.1,0.1l-0.1,0.1l0,0c-0.2,0.3-0.4,0.6-0.6,0.9
	c-0.2,0.3-0.3,0.6-0.4,0.8c-0.1,0.3-0.2,0.5-0.2,0.8c0,0.2-0.1,0.5-0.1,0.7c0,0.2,0,0.5,0,0.7c0,0.2,0.1,0.4,0.1,0.6
	c0,0.2,0.1,0.4,0.2,0.6c0.1,0.2,0.1,0.3,0.2,0.5l0,0.1l0.1,0.1c0.1,0.1,0.1,0.3,0.2,0.4c0.1,0.1,0.2,0.3,0.3,0.5
	c0.1,0.1,0.3,0.3,0.5,0.5c0.2,0.2,0.4,0.3,0.6,0.5c0.2,0.1,0.4,0.3,0.7,0.4c0.3,0.1,0.6,0.3,0.9,0.4l0.1,0c0.4,0.1,0.8,0.3,1.2,0.4
	c0.5,0.1,1,0.3,1.5,0.4l0.1,0c2.1,0.3,4.1,0.4,5.9,0.3c1.8-0.1,3.5-0.5,5-1c1.5-0.5,3-1.1,4.3-1.7c1.3-0.6,2.5-1.3,3.5-1.9l0,0
	c0.1-0.1,0.6-0.4,1.1-0.8l0,0c2.5-1.7,7.8-5.2,8.5-5.2h0h0c0.1,0,0.2,0,0.3,0.1c0.1,0,0.2,0.1,0.3,0.2c0.1,0.1,0.2,0.2,0.2,0.4
	c0,0.1,0.1,0.3,0.1,0.4c0,0.1,0,0.3,0,0.4c0,0.1,0,0.3,0,0.5c0,0.5-0.2,1.1-0.4,1.6c-0.3,0.6-0.6,1.1-0.9,1.4
	c-1.7,2.1-3.8,4.1-6.1,5.9c-2.3,1.8-4.9,3.5-7.5,5.1c-0.2,0.2-0.5,0.3-0.7,0.5c-0.2,0.2-0.5,0.4-0.7,0.6c-0.5,0.5-0.9,1-1.2,1.5
	c-0.3,0.5-0.5,1.1-0.5,1.7c0,0.6,0.1,1.2,0.4,1.9c0.3,0.7,0.9,1.5,1.7,2.4c2,2.1,4.1,2.9,6.2,3.3c2.1,0.3,4.3,0,6.2-0.2h0h0h0h0h0
	l0,0c0.5-0.1,1-0.1,1.5-0.2c0.5,0,1-0.1,1.4-0.1c0.5,0,1,0,1.5,0c0.5,0,1,0,1.5,0c0.5,0,1,0.1,1.5,0.1c0.5,0,1,0.1,1.5,0.2
	c0.4,0.1,0.9,0.1,1.3,0.2c0.4,0.1,0.8,0.2,1.2,0.3c0.4,0.1,0.8,0.3,1.2,0.5c0.3,0.1,0.5,0.3,0.7,0.4l0.3,0.2l0,0l0.1,0.1
	c0.1,0.1,0.2,0.1,0.3,0.2c0.1,0.1,0.2,0.2,0.3,0.2l0.1,0.1c0.2,0.2,0.4,0.4,0.6,0.6l0,0l0,0l0,0c0.7,0.6,1.3,1.2,2.4,1.7
	c1.2,0.5,2.8,1,5.6,1.4v0l0,0h0h0l0,0c1.8,0.2,3.3,0,4.4-0.4c1.4-0.5,2.4-1.3,2.9-2.2c0.6-0.8,0.9-1.7,1-2.5
	c0.2-0.7,0.2-1.3,0.2-1.5l0,0v0c0-0.2,0-0.6,0-1.2c0-0.5,0-1.1,0-1.8c0-2.7,0-6.6,0.4-10.4c0.4-3.9,1.2-7.7,2.8-10.2
	c0.1-0.2,0.4-0.5,0.7-0.7c0.2-0.2,0.5-0.3,0.8-0.3c0.2,0,0.4,0.1,0.6,0.1c0.2,0.1,0.4,0.2,0.6,0.3c0.2,0.1,0.3,0.2,0.5,0.4
	c0.2,0.1,0.3,0.3,0.4,0.4c1,1.1,1.8,2.4,2.6,3.7c0.8,1.5,1.6,3,2.2,4.6c0.7,1.8,1.3,3.6,1.9,5.5c0.6,2.1,1.1,4.2,1.4,6.2
	c0.1,0.3,0.1,0.5,0.1,0.7c0,0.2,0.1,0.3,0.1,0.4h0c0,0,0,0,0,0c0.3,1.5,0.5,3,0.9,4.5c0.4,1.5,0.8,2.9,1.4,4.3l0.1,0.2l0.2,0
	c1.1-0.1,1.7-0.2,1.9-0.6c0.2-0.4,0.3-1.2,0.3-2.7v-0.3V325c0-0.3,0-0.6-0.1-1c0-0.4-0.1-0.9-0.2-1.5c-0.1-0.6-0.2-1.3-0.4-2
	c-0.2-0.8-0.3-1.6-0.5-2.4c-0.2-0.7-0.3-1.4-0.5-2.2c-1.4-6-2.6-11.3-6.6-16.5c-0.6-0.8-1.1-1.4-1.4-2c-0.4-0.7-0.6-1.3-0.5-2
	c0,0,0-0.1,0-0.1c0.1-0.7,0.4-1.1,0.8-1.4c0.4-0.3,1-0.4,1.6-0.4c0,0,0.1,0,0.2,0h0h0l0,0c0.4,0.1,0.9,0.3,1.3,0.5
	c0.5,0.3,1.1,0.6,1.6,1c0.6,0.4,1.2,0.9,1.8,1.4c0.6,0.5,1.2,1,1.8,1.5h0l0.2,0.2l0.1,0.1c1.2,1.1,2.3,2.1,3.4,3
	c1.1,0.9,2.2,1.6,3.3,2.3c1.1,0.6,2.1,1.2,3.1,1.6c1,0.4,2,0.8,2.9,1.1c0.9,0.3,1.9,0.5,2.7,0.6c0.9,0.1,1.7,0.2,2.5,0.3
	c0.8,0.1,1.6,0.1,2.3,0.1c0.7,0,1.4,0,2.1,0c0.1,0,0.2,0,0.3,0c0.1,0,0.2,0,0.3,0c0.1,0,0.2,0,0.3,0c0,0,0.1,0,0.1,0h0l0.1,0
	c0.5-0.1,1-0.2,1.4-0.3c0.4-0.1,0.8-0.3,1.2-0.4c0.3-0.2,0.7-0.3,0.9-0.5c0.3-0.2,0.5-0.4,0.8-0.7l0,0c0.2-0.2,0.4-0.5,0.5-0.7
	c0.1-0.2,0.2-0.5,0.3-0.8c0.1-0.3,0.1-0.6,0.2-0.8c0-0.3,0-0.6,0-0.9c0,0,0,0,0-0.1c0,0,0-0.1,0-0.1l0-0.1c0,0,0,0,0-0.1l0-0.3
	l0-0.3l0-0.1l0-0.1c-0.3-2-0.9-5.7,2.9-10.4l0.2-0.3l0.2-0.3h0c0.9-1.1,1.6-2.1,2-2.9c0.5-0.9,0.7-1.7,0.8-2.6
	c0.1-0.8,0-1.7-0.1-2.7c-0.2-1.2-0.4-2.4-0.8-3.4c-0.1-0.2-0.1-0.3-0.1-0.4c0-0.1-0.1-0.2-0.1-0.4c0-0.1-0.1-0.3-0.1-0.4
	c0-0.1-0.1-0.3-0.1-0.4v0l0,0c-1.4-4.5-3.4-6.9-5.5-8.2c-2.2-1.3-4.6-1.4-7-1.4v0h-0.3h-0.1c-1.3,0.1-2.5,0.3-3.8,0.4l0,0
	c-0.5,0.1-1.1,0.2-1.8,0.3c-3.7,0.6-9.1,1.4-10.6-0.1h0c-0.4-0.4-0.4-0.7-0.1-1.1c0.5-0.6,1.9-1.2,3.7-2c6-2.7,17-7.6,16-18.8v0v0
	c0-0.2,0-0.5-0.1-0.7c0-0.2,0-0.4,0-0.6c0-0.4,0-0.8,0-1.9c0-0.3,0-0.5,0-0.8c0-0.3,0-0.5,0-0.7c0-0.3,0-0.6,0-0.8
	c0-0.3,0-0.6,0-0.9c0-0.3,0-0.7,0-1c0-0.4,0-0.7,0.1-1.1c0-0.7,0-1.4-0.1-1.8c-0.1-0.5-0.4-0.8-0.7-1.1c-0.3-0.3-0.7-0.5-1.1-0.6
	c-0.4-0.1-1-0.2-1.5-0.3c-0.4,0-0.8,0-1.2,0c-0.3,0-0.6,0-0.9,0.1l-0.3,0l-0.3,0l-0.3,0h0l-0.1,0h-0.1c-0.4,0-1.1,0-1.8,0
	c-0.6,0-1.3-0.1-2-0.3c-2.2-0.4-4.2-1.1-6.1-2c-1.9-0.9-3.6-2.2-5-3.9c-1.2-1.4-2.3-2.3-3.3-2.9c-1-0.6-1.9-0.8-2.8-0.8
	c-0.8,0-1.7,0.2-2.6,0.5c-0.9,0.3-1.8,0.8-2.4,1.4l0,0l-0.2,0.2c-0.3,0.3-0.6,0.6-0.9,0.8c-0.3,0.2-0.5,0.5-0.7,0.7l-0.1,0.1
	l-0.1,0.1l-0.1,0.1l0,0l0,0c-0.8,0.7-1.5,1.5-2.2,2.3c-0.7,0.8-1.3,1.7-1.9,2.6c-0.6,0.9-1.1,1.8-1.6,2.8c-0.5,0.9-0.9,1.9-1.2,2.9
	c-0.9,2.6-1,7.1-1,10.8c0,3.4-0.1,6.1-0.8,6.6c-0.4,0.3-0.9,0-1.5-1c-0.1-0.2-0.2-0.4-0.4-0.6c-0.1-0.2-0.3-0.5-0.4-0.8
	c-1.3-2.6-1.6-5.5-2.5-8.3c-0.8-2.5-1.8-4.6-2.9-6.5C-76.3,235.9-77.7,234.1-79.1,232.7" fill="white"/>
</svg>
