<?xml version="1.0" encoding="utf-8"?>
<!-- Generator: Adobe Illustrator 19.0.0, SVG Export Plug-In . SVG Version: 6.00 Build 0)  -->
<svg version="1.1" id="layer" xmlns="http://www.w3.org/2000/svg" xmlns:xlink="http://www.w3.org/1999/xlink" x="0px" y="0px"
	 viewBox="-153 -46 652 652" style="enable-background:new -153 -46 652 652;" xml:space="preserve">
<style type="text/css">
	.st0{fill:white;}
</style>
<rect x="-126.6" y="230.1" class="st0" width="73" height="73"/>
<path d="M400.7,304.7c0-18.4-13.6-23.7-29.7-23.7c-16.5,0-29.7,5.1-29.7,23.7s13.1,23.7,29.7,23.7
	C386.3,328.5,400.7,323.3,400.7,304.7 M348.8,304.8c0-13.8,10.7-16.5,22.2-16.5c10.9,0,22.2,2.7,22.2,16.5c0,13.7-11,16.6-22.2,16.6
	C359.4,321.3,348.8,318.4,348.8,304.8" fill="white"/>
<rect x="188.2" y="283.1" width="8.2" height="45.2" fill="white"/>
<polygon points="229.2,283.1 220.9,283.1 220.9,328.5 265.5,328.5 265.5,321.1 229.2,321.1 " fill="white"/>
<polygon points="328.5,283.1 265.9,283.1 265.9,290.2 293.3,290.2 293.3,328.5 301.6,328.5 301.6,290.2 328.5,290.2 " fill="white"/>
<path d="M473.4,328.5v-24.6c0-7.8,0-21.2-26.4-21.2c-26.4,0-26.6,13.5-26.6,21.2v24.6h8.2c0,0,0-14.6,0-21
	c0.2-7.9-2.6-17.4,18.1-17.4s18.2,9.5,18.4,17.4c0,6.5,0,21,0,21H473.4z" fill="white"/>
<path d="M29.1,282.7c-29.9,0-29.2,13.5-29.2,21.2v24.6h8.4c0,0,0-9.2,0-15.7h20.9h20.8c0,6.5,0,15.7,0,15.7h8.4v-24.6
	C58.2,296.1,59,282.7,29.1,282.7 M49.9,305H29.1H8.2C8.1,297.9,6.4,290,29.1,290C51.7,290,50,297.7,49.9,305" fill="white"/>
<path d="M163.8,328.5v-24.9c-0.1-11,1-21.8-21.2-21.8c-9.5,0-16.6,1.6-19.4,6c-2.7-4.3-9.7-6-19.3-6c-21.2,0-21.1,10.8-21.2,21.8
	v24.9h8.7c0,0,0-14.8,0-21.5c0.3-9.5-2.4-17.4,12.3-17.4c16,0,15.3,3,15.3,17.4c0,6.6,0,21.5,0,21.5h4.2h4.3c0,0,0-14.8,0-21.6
	c0-14.4-0.6-17.4,15.3-17.4c14.7,0,11.9,7.9,12.3,17.4v21.5L163.8,328.5z" fill="white"/>
<path d="M-32.8,300.2h-41.5v-17.5h-8.4v45.5h8.4c0,0,0-11.6,0-19.7h41.5v19.7h8.4v-45.5h-8.4C-32.8,282.7-32.8,300.2-32.8,300.2z" fill="white"/>
</svg>
