<?xml version="1.0" encoding="utf-8"?>
<!-- Generator: Adobe Illustrator 19.0.0, SVG Export Plug-In . SVG Version: 6.00 Build 0)  -->
<svg version="1.1" id="layer" xmlns="http://www.w3.org/2000/svg" xmlns:xlink="http://www.w3.org/1999/xlink" x="0px" y="0px"
	 viewBox="-153 -46 652 652" style="enable-background:new -153 -46 652 652;" xml:space="preserve">
<style type="text/css">
	.st0{fill:white;}
	.st1{fill:white;}
	.st2{fill:white;}
	.st3{fill:white;}
</style>
<path class="st0" d="M-131.8,306.4v-62.5h12.5l24.9,45.8l25.1-45.8h12.5v62.5h-12.5v-33.3L-88,306.4h-12.5l-18.7-33.4v33.4H-131.8z
	 M-131.8,306.4"/>
<path class="st0" d="M-20.3,281.4l-27.1-37.5h14.5l18.8,25l18.8-25h14.6l-27.1,37.5v25h-12.5V281.4z M-20.3,281.4"/>
<path class="st0" d="M90.1,293.9v12.5H48.4c-13.9,0-20.8-7-20.8-20.9v-20.8c0-13.9,6.9-20.9,20.8-20.9h41.7v12.5h-40
	c-6.7,0-10,3.3-10,10v17.5c0,6.7,3.4,10.1,10.1,10.1L90.1,293.9z M90.1,293.9"/>
<path class="st0" d="M145.3,306.4h-20.8c-13.9,0-20.8-6.9-20.8-20.8v-20.8c0-13.9,6.9-20.8,20.8-20.8h20.8
	c13.9,0,20.8,6.9,20.8,20.8v20.8C166.1,299.4,159.2,306.4,145.3,306.4L145.3,306.4z M143.2,293.9c6.9,0,10.4-3.5,10.4-10.4v-16.7
	c0-6.9-3.5-10.4-10.4-10.4h-18.7c-5.6,0-8.3,3.5-8.3,10.4v16.7c0,7,3.5,10.4,10.4,10.4H143.2z M143.2,293.9"/>
<rect x="255" y="243.8" class="st1" width="62.5" height="12.5"/>
<path class="st2" d="M317.5,281.4H255v-12.5h62.5L317.5,281.4z M317.5,281.4"/>
<path class="st3" d="M317.6,293.9l0,12.5H255v-12.5H317.6z M317.6,293.9"/>
<path class="st0" d="M330,306.4v-62.5h12.5l37.5,41.7v-41.7h12.5v62.5h-12.5l-37.6-41.8v41.8L330,306.4z M330,306.4"/>
<g>
	<path class="st0" d="M401.6,306.4l27.1-62.5h12.5l27.1,62.5h-14.6l-18.7-46l-18.8,46H401.6z M401.6,306.4"/>
	<path class="st0" d="M217.5,281.4h4.2c13.9,0,20.8-6.3,20.8-18.8c0-12.5-6.9-18.8-20.8-18.8H180v12.5h39.6c7,0,10.4,2.1,10.4,6.3
		c0,4.2-3.5,6.3-10.4,6.3H180v12.5h18.8l29.2,25h18.7L217.5,281.4z M217.5,281.4"/>
</g>
</svg>
