<?xml version="1.0" encoding="UTF-8"?>
<svg xmlns="http://www.w3.org/2000/svg" xmlns:xlink="http://www.w3.org/1999/xlink" width="638.02pt" height="312.49pt" viewBox="0 0 638.02 312.49" version="1.1" fill="white">
<defs>
<clipPath id="clip1">
  <path d="M 0 224 L 69 224 L 69 312.488281 L 0 312.488281 Z M 0 224 " fill="white"/>
</clipPath>
<clipPath id="clip2">
  <path d="M 277 224 L 354 224 L 354 312.488281 L 277 312.488281 Z M 277 224 " fill="white"/>
</clipPath>
<clipPath id="clip3">
  <path d="M 629 247 L 638.019531 247 L 638.019531 256 L 629 256 Z M 629 247 " fill="white"/>
</clipPath>
</defs>
<g id="surface1">
<g clip-path="url(#clip1)" clip-rule="nonzero">
<path style=" stroke:none;fill-rule:nonzero;fill:rgb(57.598877%,57.598877%,58.799744%);fill-opacity:1;" d="M 47.25 238.082031 C 43.496094 235.375 38.691406 234.023438 32.84375 234.023438 C 30.472656 234.023438 28.140625 234.261719 25.847656 234.730469 C 23.554688 235.199219 21.519531 235.984375 19.742188 237.082031 C 17.964844 238.183594 16.539063 239.652344 15.472656 241.492188 C 14.40625 243.335938 13.871094 245.632813 13.871094 248.375 C 13.871094 250.964844 14.644531 253.0625 16.183594 254.667969 C 17.726563 256.277344 19.78125 257.59375 22.351563 258.609375 C 24.917969 259.632813 27.824219 260.476563 31.066406 261.140625 C 34.304688 261.808594 37.605469 262.53125 40.964844 263.316406 C 44.324219 264.101563 47.625 265.023438 50.867188 266.082031 C 54.105469 267.140625 57.011719 268.570313 59.582031 270.375 C 62.148438 272.179688 64.207031 274.453125 65.746094 277.199219 C 67.289063 279.945313 68.058594 283.394531 68.058594 287.550781 C 68.058594 292.023438 67.050781 295.84375 65.035156 299.019531 C 63.019531 302.195313 60.429688 304.785156 57.269531 306.785156 C 54.105469 308.785156 50.570313 310.238281 46.65625 311.136719 C 42.746094 312.039063 38.851563 312.488281 34.976563 312.488281 C 30.234375 312.488281 25.746094 311.902344 21.519531 310.726563 C 17.292969 309.550781 13.578125 307.765625 10.375 305.371094 C 7.175781 302.984375 4.640625 299.921875 2.785156 296.195313 C 0.929688 292.472656 0 288.0625 0 282.964844 L 10.671875 282.964844 C 10.671875 286.492188 11.363281 289.53125 12.746094 292.078125 C 14.128906 294.628906 15.949219 296.726563 18.199219 298.375 C 20.453125 300.019531 23.082031 301.238281 26.085938 302.019531 C 29.089844 302.804688 32.171875 303.195313 35.335938 303.195313 C 37.863281 303.195313 40.410156 302.960938 42.980469 302.492188 C 45.550781 302.019531 47.859375 301.21875 49.917969 300.078125 C 51.972656 298.941406 53.632813 297.394531 54.898438 295.433594 C 56.160156 293.472656 56.796875 290.964844 56.796875 287.902344 C 56.796875 285.003906 56.023438 282.648438 54.484375 280.84375 C 52.941406 279.042969 50.886719 277.570313 48.316406 276.433594 C 45.746094 275.296875 42.84375 274.375 39.601563 273.667969 C 36.359375 272.964844 33.0625 272.238281 29.703125 271.492188 C 26.34375 270.746094 23.042969 269.886719 19.800781 268.902344 C 16.558594 267.925781 13.652344 266.632813 11.085938 265.023438 C 8.515625 263.417969 6.460938 261.335938 4.921875 258.785156 C 3.378906 256.238281 2.609375 253.042969 2.609375 249.199219 C 2.609375 244.964844 3.476563 241.300781 5.21875 238.199219 C 6.953125 235.101563 9.265625 232.554688 12.152344 230.554688 C 15.039063 228.554688 18.320313 227.066406 21.996094 226.082031 C 25.671875 225.105469 29.445313 224.613281 33.316406 224.613281 C 37.664063 224.613281 41.695313 225.121094 45.414063 226.140625 C 49.128906 227.160156 52.386719 228.769531 55.195313 230.964844 C 58 233.160156 60.214844 235.925781 61.835938 239.257813 C 63.453125 242.59375 64.34375 246.574219 64.503906 251.199219 L 53.832031 251.199219 C 53.199219 245.160156 51.003906 240.789063 47.25 238.082031 " fill="white"/>
</g>
<path style=" stroke:none;fill-rule:nonzero;fill:rgb(57.598877%,57.598877%,58.799744%);fill-opacity:1;" d="M 108.253906 281.257813 C 106.199219 281.6875 104.046875 282.042969 101.792969 282.316406 C 99.539063 282.589844 97.265625 282.902344 94.972656 283.257813 C 92.679688 283.609375 90.625 284.179688 88.808594 284.960938 C 86.988281 285.746094 85.507813 286.863281 84.363281 288.316406 C 83.214844 289.765625 82.644531 291.746094 82.644531 294.257813 C 82.644531 295.902344 82.976563 297.296875 83.652344 298.433594 C 84.320313 299.570313 85.191406 300.492188 86.257813 301.195313 C 87.328125 301.902344 88.589844 302.414063 90.054688 302.726563 C 91.515625 303.039063 92.996094 303.195313 94.5 303.195313 C 97.820313 303.195313 100.667969 302.746094 103.039063 301.84375 C 105.410156 300.941406 107.34375 299.804688 108.847656 298.433594 C 110.347656 297.0625 111.457031 295.570313 112.167969 293.960938 C 112.878906 292.355469 113.234375 290.84375 113.234375 289.433594 L 113.234375 279.195313 C 111.96875 280.140625 110.308594 280.824219 108.253906 281.257813 Z M 122.363281 311.902344 C 119.757813 311.902344 117.679688 311.175781 116.140625 309.726563 C 114.597656 308.273438 113.828125 305.902344 113.828125 302.609375 C 111.058594 305.902344 107.839844 308.273438 104.164063 309.726563 C 100.488281 311.175781 96.515625 311.902344 92.246094 311.902344 C 89.480469 311.902344 86.871094 311.609375 84.421875 311.019531 C 81.96875 310.433594 79.816406 309.453125 77.960938 308.078125 C 76.101563 306.707031 74.640625 304.941406 73.574219 302.785156 C 72.503906 300.628906 71.972656 298.019531 71.972656 294.960938 C 71.972656 291.511719 72.566406 288.6875 73.75 286.492188 C 74.9375 284.296875 76.496094 282.511719 78.433594 281.140625 C 80.371094 279.769531 82.585938 278.726563 85.074219 278.023438 C 87.5625 277.316406 90.113281 276.726563 92.722656 276.257813 C 95.488281 275.710938 98.117188 275.296875 100.605469 275.023438 C 103.097656 274.746094 105.289063 274.355469 107.1875 273.847656 C 109.085938 273.335938 110.585938 272.59375 111.691406 271.609375 C 112.800781 270.632813 113.355469 269.199219 113.355469 267.316406 C 113.355469 265.121094 112.9375 263.355469 112.109375 262.023438 C 111.277344 260.691406 110.210938 259.667969 108.90625 258.964844 C 107.601563 258.257813 106.140625 257.785156 104.519531 257.550781 C 102.898438 257.316406 101.296875 257.199219 99.71875 257.199219 C 95.449219 257.199219 91.890625 258.003906 89.046875 259.609375 C 86.199219 261.21875 84.660156 264.257813 84.421875 268.726563 L 74.34375 268.726563 C 74.5 264.964844 75.292969 261.785156 76.714844 259.199219 C 78.136719 256.609375 80.035156 254.515625 82.40625 252.90625 C 84.777344 251.300781 87.503906 250.140625 90.585938 249.433594 C 93.671875 248.730469 96.910156 248.375 100.3125 248.375 C 103.074219 248.375 105.824219 248.570313 108.550781 248.964844 C 111.277344 249.359375 113.746094 250.160156 115.960938 251.375 C 118.175781 252.59375 119.953125 254.296875 121.296875 256.492188 C 122.640625 258.691406 123.3125 261.550781 123.3125 265.082031 L 123.3125 296.375 C 123.3125 298.726563 123.449219 300.453125 123.730469 301.550781 C 124.003906 302.648438 124.933594 303.195313 126.515625 303.195313 C 127.382813 303.195313 128.410156 303.003906 129.597656 302.609375 L 129.597656 310.371094 C 127.855469 311.390625 125.449219 311.902344 122.363281 311.902344 " fill="white"/>
<path style=" stroke:none;fill-rule:nonzero;fill:rgb(57.598877%,57.598877%,58.799744%);fill-opacity:1;" d="M 144.890625 226.609375 L 144.890625 310.609375 L 134.8125 310.609375 L 134.8125 226.609375 L 144.890625 226.609375 "/>
<path style=" stroke:none;fill-rule:nonzero;fill:rgb(57.598877%,57.598877%,58.799744%);fill-opacity:1;" d="M 164.632813 290.078125 C 165.617188 292.941406 166.980469 295.335938 168.722656 297.257813 C 170.460938 299.179688 172.496094 300.648438 174.828125 301.667969 C 177.160156 302.6875 179.632813 303.195313 182.238281 303.195313 C 184.847656 303.195313 187.316406 302.6875 189.648438 301.667969 C 191.980469 300.648438 194.015625 299.179688 195.757813 297.257813 C 197.496094 295.335938 198.859375 292.941406 199.847656 290.078125 C 200.835938 287.21875 201.328125 283.945313 201.328125 280.257813 C 201.328125 276.570313 200.835938 273.296875 199.847656 270.433594 C 198.859375 267.570313 197.496094 265.160156 195.757813 263.199219 C 194.015625 261.238281 191.980469 259.75 189.648438 258.730469 C 187.316406 257.710938 184.847656 257.199219 182.238281 257.199219 C 179.632813 257.199219 177.160156 257.710938 174.828125 258.730469 C 172.496094 259.75 170.460938 261.238281 168.722656 263.199219 C 166.980469 265.160156 165.617188 267.570313 164.632813 270.433594 C 163.640625 273.296875 163.148438 276.570313 163.148438 280.257813 C 163.148438 283.945313 163.640625 287.21875 164.632813 290.078125 Z M 154.375 267.726563 C 155.640625 263.847656 157.535156 260.476563 160.066406 257.609375 C 162.597656 254.75 165.71875 252.492188 169.433594 250.847656 C 173.148438 249.199219 177.417969 248.375 182.238281 248.375 C 187.140625 248.375 191.429688 249.199219 195.105469 250.847656 C 198.78125 252.492188 201.882813 254.75 204.410156 257.609375 C 206.941406 260.476563 208.839844 263.847656 210.105469 267.726563 C 211.367188 271.609375 212 275.785156 212 280.257813 C 212 284.726563 211.367188 288.886719 210.105469 292.726563 C 208.839844 296.570313 206.941406 299.921875 204.410156 302.785156 C 201.882813 305.648438 198.78125 307.886719 195.105469 309.488281 C 191.429688 311.097656 187.140625 311.902344 182.238281 311.902344 C 177.417969 311.902344 173.148438 311.097656 169.433594 309.488281 C 165.71875 307.886719 162.597656 305.648438 160.066406 302.785156 C 157.535156 299.921875 155.640625 296.570313 154.375 292.726563 C 153.109375 288.886719 152.480469 284.726563 152.480469 280.257813 C 152.480469 275.785156 153.109375 271.609375 154.375 267.726563 " fill="white"/>
<path style=" stroke:none;fill-rule:nonzero;fill:rgb(57.598877%,57.598877%,58.799744%);fill-opacity:1;" d="M 228.601563 249.785156 L 228.601563 259.433594 L 228.835938 259.433594 C 233.027344 252.0625 239.667969 248.375 248.757813 248.375 C 252.789063 248.375 256.148438 248.925781 258.835938 250.023438 C 261.523438 251.121094 263.695313 252.652344 265.355469 254.609375 C 267.019531 256.570313 268.183594 258.902344 268.855469 261.609375 C 269.527344 264.316406 269.863281 267.316406 269.863281 270.609375 L 269.863281 310.609375 L 259.785156 310.609375 L 259.785156 269.433594 C 259.785156 265.667969 258.675781 262.691406 256.464844 260.492188 C 254.25 258.300781 251.207031 257.199219 247.335938 257.199219 C 244.25 257.199219 241.582031 257.671875 239.332031 258.609375 C 237.078125 259.550781 235.199219 260.886719 233.699219 262.609375 C 232.195313 264.335938 231.070313 266.355469 230.320313 268.667969 C 229.566406 270.984375 229.191406 273.511719 229.191406 276.257813 L 229.191406 310.609375 L 219.113281 310.609375 L 219.113281 249.785156 L 228.601563 249.785156 "/>
<g clip-path="url(#clip2)" clip-rule="nonzero">
<path style=" stroke:none;fill-rule:nonzero;fill:rgb(57.598877%,57.598877%,58.799744%);fill-opacity:1;" d="M 333.121094 238.492188 C 328.8125 235.515625 323.695313 234.023438 317.765625 234.023438 C 312.707031 234.023438 308.378906 234.964844 304.78125 236.847656 C 301.183594 238.730469 298.21875 241.257813 295.890625 244.433594 C 293.558594 247.609375 291.835938 251.238281 290.730469 255.316406 C 289.625 259.394531 289.070313 263.632813 289.070313 268.023438 C 289.070313 272.808594 289.625 277.335938 290.730469 281.609375 C 291.835938 285.886719 293.558594 289.609375 295.890625 292.785156 C 298.21875 295.960938 301.203125 298.492188 304.84375 300.371094 C 308.476563 302.257813 312.824219 303.195313 317.882813 303.195313 C 321.597656 303.195313 324.898438 302.589844 327.785156 301.375 C 330.667969 300.15625 333.160156 298.472656 335.253906 296.316406 C 337.347656 294.160156 338.988281 291.589844 340.175781 288.609375 C 341.363281 285.628906 342.074219 282.414063 342.308594 278.964844 L 353.574219 278.964844 C 352.464844 289.550781 348.789063 297.785156 342.546875 303.667969 C 336.300781 309.550781 327.765625 312.488281 316.933594 312.488281 C 310.375 312.488281 304.644531 311.371094 299.742188 309.140625 C 294.839844 306.902344 290.769531 303.824219 287.53125 299.902344 C 284.289063 295.984375 281.855469 291.355469 280.238281 286.023438 C 278.617188 280.691406 277.808594 274.964844 277.808594 268.84375 C 277.808594 262.730469 278.675781 256.984375 280.414063 251.609375 C 282.152344 246.238281 284.703125 241.554688 288.0625 237.554688 C 291.421875 233.554688 295.609375 230.398438 300.632813 228.082031 C 305.652344 225.769531 311.402344 224.613281 317.882813 224.613281 C 322.308594 224.613281 326.5 225.199219 330.453125 226.378906 C 334.402344 227.554688 337.921875 229.277344 341.003906 231.554688 C 344.089844 233.828125 346.65625 236.671875 348.710938 240.082031 C 350.765625 243.492188 352.109375 247.433594 352.742188 251.902344 L 341.480469 251.902344 C 340.214844 245.945313 337.425781 241.476563 333.121094 238.492188 " fill="white"/>
</g>
<path style=" stroke:none;fill-rule:nonzero;fill:rgb(57.598877%,57.598877%,58.799744%);fill-opacity:1;" d="M 402.128906 267.667969 C 401.21875 265.550781 399.992188 263.730469 398.449219 262.199219 C 396.910156 260.671875 395.089844 259.453125 392.996094 258.550781 C 390.902344 257.652344 388.589844 257.199219 386.058594 257.199219 C 383.453125 257.199219 381.097656 257.652344 379.003906 258.550781 C 376.910156 259.453125 375.109375 260.691406 373.609375 262.257813 C 372.109375 263.828125 370.921875 265.648438 370.054688 267.726563 C 369.183594 269.808594 368.667969 272.023438 368.511719 274.375 L 403.726563 274.375 C 403.570313 272.023438 403.035156 269.785156 402.128906 267.667969 Z M 404.558594 306.726563 C 399.972656 310.179688 394.199219 311.902344 387.246094 311.902344 C 382.34375 311.902344 378.097656 311.117188 374.5 309.550781 C 370.902344 307.984375 367.878906 305.785156 365.429688 302.960938 C 362.976563 300.136719 361.140625 296.765625 359.914063 292.84375 C 358.6875 288.925781 358 284.648438 357.839844 280.023438 C 357.839844 275.394531 358.550781 271.160156 359.976563 267.316406 C 361.398438 263.476563 363.394531 260.140625 365.960938 257.316406 C 368.53125 254.492188 371.574219 252.296875 375.09375 250.730469 C 378.609375 249.160156 382.464844 248.375 386.652344 248.375 C 392.109375 248.375 396.632813 249.492188 400.230469 251.730469 C 403.824219 253.964844 406.710938 256.808594 408.886719 260.257813 C 411.058594 263.710938 412.5625 267.472656 413.390625 271.550781 C 414.222656 275.632813 414.558594 279.511719 414.398438 283.199219 L 368.511719 283.199219 C 368.433594 285.863281 368.75 288.394531 369.460938 290.785156 C 370.171875 293.179688 371.316406 295.296875 372.898438 297.140625 C 374.480469 298.984375 376.496094 300.453125 378.945313 301.550781 C 381.394531 302.648438 384.28125 303.195313 387.601563 303.195313 C 391.871094 303.195313 395.367188 302.21875 398.09375 300.257813 C 400.820313 298.296875 402.621094 295.316406 403.492188 291.316406 L 413.449219 291.316406 C 412.105469 298.140625 409.140625 303.277344 404.558594 306.726563 " fill="white"/>
<path style=" stroke:none;fill-rule:nonzero;fill:rgb(57.598877%,57.598877%,58.799744%);fill-opacity:1;" d="M 429.574219 249.785156 L 429.574219 259.433594 L 429.8125 259.433594 C 434 252.0625 440.640625 248.375 449.734375 248.375 C 453.761719 248.375 457.121094 248.925781 459.8125 250.023438 C 462.496094 251.121094 464.671875 252.652344 466.332031 254.609375 C 467.992188 256.570313 469.15625 258.902344 469.832031 261.609375 C 470.5 264.316406 470.835938 267.316406 470.835938 270.609375 L 470.835938 310.609375 L 460.757813 310.609375 L 460.757813 269.433594 C 460.757813 265.667969 459.652344 262.691406 457.4375 260.492188 C 455.226563 258.300781 452.179688 257.199219 448.308594 257.199219 C 445.226563 257.199219 442.558594 257.671875 440.304688 258.609375 C 438.050781 259.550781 436.175781 260.886719 434.671875 262.609375 C 433.171875 264.335938 432.042969 266.355469 431.292969 268.667969 C 430.542969 270.984375 430.167969 273.511719 430.167969 276.257813 L 430.167969 310.609375 L 420.089844 310.609375 L 420.089844 249.785156 L 429.574219 249.785156 "/>
<path style=" stroke:none;fill-rule:nonzero;fill:rgb(57.598877%,57.598877%,58.799744%);fill-opacity:1;" d="M 507.476563 249.785156 L 507.476563 258.609375 L 495.261719 258.609375 L 495.261719 296.375 C 495.261719 297.550781 495.363281 298.492188 495.558594 299.195313 C 495.757813 299.902344 496.132813 300.453125 496.6875 300.84375 C 497.238281 301.238281 498.007813 301.488281 499 301.609375 C 499.984375 301.726563 501.269531 301.785156 502.851563 301.785156 L 507.476563 301.785156 L 507.476563 310.609375 L 499.769531 310.609375 C 497.160156 310.609375 494.925781 310.433594 493.070313 310.078125 C 491.210938 309.726563 489.710938 309.078125 488.566406 308.136719 C 487.417969 307.195313 486.566406 305.863281 486.015625 304.140625 C 485.460938 302.414063 485.183594 300.136719 485.183594 297.316406 L 485.183594 258.609375 L 474.75 258.609375 L 474.75 249.785156 L 485.183594 249.785156 L 485.183594 231.554688 L 495.261719 231.554688 L 495.261719 249.785156 L 507.476563 249.785156 "/>
<path style=" stroke:none;fill-rule:nonzero;fill:rgb(57.598877%,57.598877%,58.799744%);fill-opacity:1;" d="M 523.007813 249.785156 L 523.007813 262.609375 L 523.246094 262.609375 C 525.691406 257.671875 528.699219 254.023438 532.253906 251.671875 C 535.8125 249.316406 540.320313 248.21875 545.773438 248.375 L 545.773438 258.964844 C 541.742188 258.964844 538.304688 259.515625 535.457031 260.609375 C 532.613281 261.710938 530.316406 263.316406 528.578125 265.433594 C 526.839844 267.550781 525.574219 270.121094 524.785156 273.140625 C 523.992188 276.160156 523.601563 279.628906 523.601563 283.550781 L 523.601563 310.609375 L 513.523438 310.609375 L 513.523438 249.785156 L 523.007813 249.785156 "/>
<path style=" stroke:none;fill-rule:nonzero;fill:rgb(57.598877%,57.598877%,58.799744%);fill-opacity:1;" d="M 559.289063 249.785156 L 559.289063 310.609375 L 549.210938 310.609375 L 549.210938 249.785156 L 559.289063 249.785156 "/>
<path style=" stroke:none;fill-rule:nonzero;fill:rgb(57.598877%,57.598877%,58.799744%);fill-opacity:1;" d="M 606.835938 260.375 C 604.304688 258.257813 600.90625 257.199219 596.636719 257.199219 C 593 257.199219 589.957031 257.867188 587.507813 259.199219 C 585.058594 260.535156 583.101563 262.296875 581.636719 264.492188 C 580.175781 266.6875 579.128906 269.21875 578.496094 272.078125 C 577.863281 274.945313 577.546875 277.902344 577.546875 280.960938 C 577.546875 283.785156 577.882813 286.53125 578.554688 289.195313 C 579.226563 291.863281 580.273438 294.238281 581.695313 296.316406 C 583.121094 298.394531 584.976563 300.0625 587.269531 301.316406 C 589.5625 302.570313 592.289063 303.195313 595.453125 303.195313 C 600.429688 303.195313 604.324219 301.902344 607.128906 299.316406 C 609.9375 296.726563 611.65625 293.078125 612.289063 288.375 L 622.605469 288.375 C 621.496094 295.902344 618.671875 301.707031 614.128906 305.785156 C 609.582031 309.863281 603.394531 311.902344 595.570313 311.902344 C 590.90625 311.902344 586.773438 311.15625 583.179688 309.667969 C 579.582031 308.179688 576.578125 306.0625 574.167969 303.316406 C 571.753906 300.570313 569.9375 297.296875 568.714844 293.492188 C 567.488281 289.6875 566.875 285.511719 566.875 280.960938 C 566.875 276.414063 567.46875 272.160156 568.65625 268.199219 C 569.839844 264.238281 571.636719 260.785156 574.050781 257.847656 C 576.460938 254.90625 579.484375 252.59375 583.121094 250.90625 C 586.753906 249.21875 590.984375 248.375 595.808594 248.375 C 599.285156 248.375 602.546875 248.789063 605.589844 249.609375 C 608.632813 250.433594 611.320313 251.710938 613.652344 253.433594 C 615.984375 255.160156 617.898438 257.335938 619.402344 259.964844 C 620.902344 262.59375 621.851563 265.710938 622.25 269.316406 L 611.816406 269.316406 C 611.023438 265.476563 609.363281 262.492188 606.835938 260.375 " fill="white"/>
<path style=" stroke:none;fill-rule:nonzero;fill:rgb(57.598877%,57.598877%,58.799744%);fill-opacity:1;" d="M 626.285156 248.496094 C 625.914063 248.230469 625.441406 248.09375 624.863281 248.09375 C 624.628906 248.09375 624.398438 248.117188 624.175781 248.164063 C 623.949219 248.210938 623.746094 248.289063 623.574219 248.398438 C 623.398438 248.507813 623.257813 248.652344 623.152344 248.835938 C 623.046875 249.019531 622.992188 249.246094 622.992188 249.519531 C 622.992188 249.777344 623.070313 249.984375 623.222656 250.148438 C 623.375 250.308594 623.574219 250.4375 623.828125 250.539063 C 624.082031 250.640625 624.367188 250.722656 624.6875 250.789063 C 625.007813 250.855469 625.332031 250.929688 625.664063 251.007813 C 625.996094 251.085938 626.320313 251.175781 626.640625 251.28125 C 626.960938 251.386719 627.246094 251.527344 627.5 251.707031 C 627.753906 251.886719 627.957031 252.113281 628.109375 252.386719 C 628.261719 252.65625 628.335938 253 628.335938 253.414063 C 628.335938 253.859375 628.238281 254.238281 628.039063 254.554688 C 627.839844 254.867188 627.582031 255.125 627.273438 255.324219 C 626.960938 255.523438 626.613281 255.667969 626.226563 255.757813 C 625.839844 255.847656 625.457031 255.894531 625.074219 255.894531 C 624.605469 255.894531 624.164063 255.835938 623.746094 255.71875 C 623.332031 255.601563 622.964844 255.421875 622.648438 255.1875 C 622.332031 254.945313 622.082031 254.644531 621.902344 254.273438 C 621.71875 253.902344 621.625 253.464844 621.625 252.960938 L 622.675781 252.960938 C 622.675781 253.308594 622.746094 253.609375 622.882813 253.863281 C 623.019531 254.117188 623.199219 254.324219 623.421875 254.488281 C 623.640625 254.652344 623.902344 254.773438 624.199219 254.851563 C 624.492188 254.929688 624.796875 254.96875 625.109375 254.96875 C 625.359375 254.96875 625.609375 254.945313 625.863281 254.898438 C 626.117188 254.851563 626.34375 254.773438 626.546875 254.65625 C 626.75 254.546875 626.914063 254.390625 627.039063 254.195313 C 627.164063 254.003906 627.226563 253.753906 627.226563 253.449219 C 627.226563 253.160156 627.148438 252.929688 626.996094 252.746094 C 626.84375 252.566406 626.644531 252.421875 626.390625 252.308594 C 626.136719 252.195313 625.851563 252.105469 625.53125 252.035156 C 625.210938 251.964844 624.886719 251.894531 624.554688 251.816406 C 624.222656 251.742188 623.898438 251.65625 623.578125 251.5625 C 623.257813 251.464844 622.972656 251.335938 622.71875 251.175781 C 622.464844 251.015625 622.261719 250.808594 622.109375 250.558594 C 621.957031 250.300781 621.882813 249.984375 621.882813 249.601563 C 621.882813 249.183594 621.96875 248.816406 622.140625 248.511719 C 622.3125 248.203125 622.539063 247.949219 622.824219 247.75 C 623.109375 247.550781 623.429688 247.402344 623.792969 247.304688 C 624.15625 247.207031 624.527344 247.160156 624.910156 247.160156 C 625.339844 247.160156 625.738281 247.210938 626.105469 247.3125 C 626.46875 247.414063 626.792969 247.570313 627.066406 247.789063 C 627.34375 248.007813 627.5625 248.28125 627.722656 248.613281 C 627.882813 248.945313 627.96875 249.339844 627.984375 249.800781 L 626.933594 249.800781 C 626.871094 249.203125 626.652344 248.765625 626.285156 248.496094 " fill="white"/>
<g clip-path="url(#clip3)" clip-rule="nonzero">
<path style=" stroke:none;fill-rule:nonzero;fill:rgb(57.598877%,57.598877%,58.799744%);fill-opacity:1;" d="M 631.222656 247.359375 L 633.855469 254.371094 L 636.496094 247.359375 L 638.015625 247.359375 L 638.015625 255.703125 L 636.964844 255.703125 L 636.964844 248.761719 L 636.941406 248.761719 L 634.335938 255.703125 L 633.386719 255.703125 L 630.78125 248.761719 L 630.757813 248.761719 L 630.757813 255.703125 L 629.703125 255.703125 L 629.703125 247.359375 L 631.222656 247.359375 " fill="white"/>
</g>
<path style=" stroke:none;fill-rule:nonzero;fill:rgb(57.598877%,57.598877%,58.799744%);fill-opacity:1;" d="M 560.230469 236.445313 C 560.230469 239.761719 557.542969 242.449219 554.226563 242.449219 C 550.914063 242.449219 548.226563 239.761719 548.226563 236.445313 C 548.226563 233.128906 550.914063 230.441406 554.226563 230.441406 C 557.542969 230.441406 560.230469 233.128906 560.230469 236.445313 "/>
<path style=" stroke:none;fill-rule:nonzero;fill:rgb(72.898865%,84.298706%,93.299866%);fill-opacity:1;" d="M 314.523438 16.378906 C 270.886719 16.378906 235.382813 51.878906 235.382813 95.515625 C 235.382813 139.152344 270.886719 174.65625 314.523438 174.65625 C 358.160156 174.65625 393.660156 139.152344 393.660156 95.515625 C 393.660156 51.878906 358.160156 16.378906 314.523438 16.378906 M 314.523438 191.03125 C 261.855469 191.03125 219.011719 148.183594 219.011719 95.515625 C 219.011719 42.851563 261.855469 0.00390625 314.523438 0.00390625 C 367.1875 0.00390625 410.035156 42.851563 410.035156 95.515625 C 410.035156 148.183594 367.1875 191.03125 314.523438 191.03125 " fill="white"/>
<path style=" stroke:none;fill-rule:nonzero;fill:rgb(52.49939%,72.898865%,88.999939%);fill-opacity:1;" d="M 341.167969 81.3125 C 318.355469 81.3125 299.800781 99.867188 299.800781 122.679688 C 299.800781 145.488281 318.355469 164.042969 341.167969 164.042969 C 363.976563 164.042969 382.535156 145.488281 382.535156 122.679688 C 382.535156 99.867188 363.976563 81.3125 341.167969 81.3125 M 341.167969 180.417969 C 309.328125 180.417969 283.425781 154.515625 283.425781 122.679688 C 283.425781 90.839844 309.328125 64.9375 341.167969 64.9375 C 373.003906 64.9375 398.90625 90.839844 398.90625 122.679688 C 398.90625 154.515625 373.003906 180.417969 341.167969 180.417969 " fill="white"/>
<path style=" stroke:none;fill-rule:nonzero;fill:rgb(10.9375%,68.565369%,87.075806%);fill-opacity:1;" d="M 314.523438 174.65625 C 301.359375 174.65625 288.933594 171.425781 278 165.714844 C 262.691406 151.9375 253.054688 131.980469 253.054688 109.816406 C 253.054688 68.351563 286.789063 34.617188 328.253906 34.617188 C 351.515625 34.617188 372.347656 45.238281 386.152344 61.882813 C 390.96875 72.09375 393.660156 83.496094 393.660156 95.515625 C 393.660156 96.519531 393.640625 97.519531 393.605469 98.515625 C 390.011719 90.746094 384.738281 83.902344 378.257813 78.460938 C 367.800781 61.84375 349.296875 50.777344 328.253906 50.777344 C 295.699219 50.777344 269.210938 77.261719 269.210938 109.816406 C 269.210938 130.945313 280.367188 149.519531 297.101563 159.953125 C 302.285156 166.070313 308.71875 171.101563 316.003906 174.644531 C 315.511719 174.652344 315.019531 174.65625 314.523438 174.65625 M 360.578125 159.199219 C 367.429688 154.699219 373.296875 148.808594 377.769531 141.9375 C 376.882813 143.621094 375.878906 145.234375 374.773438 146.773438 C 371.691406 150.390625 368.292969 153.726563 364.617188 156.738281 C 363.324219 157.632813 361.972656 158.457031 360.578125 159.199219 " fill="white"/>
<path style=" stroke:none;fill-rule:nonzero;fill:rgb(96.499634%,97.999573%,99.198914%);fill-opacity:1;" d="M 328.253906 185.015625 C 308.953125 185.015625 291.328125 177.707031 278 165.714844 C 288.933594 171.425781 301.359375 174.65625 314.523438 174.65625 C 315.019531 174.65625 315.511719 174.652344 316.003906 174.644531 C 323.613281 178.34375 332.152344 180.417969 341.167969 180.417969 C 350.195313 180.417969 358.742188 178.335938 366.359375 174.628906 C 355.179688 181.226563 342.148438 185.015625 328.253906 185.015625 M 364.617188 156.738281 C 368.292969 153.726563 371.691406 150.390625 374.773438 146.773438 C 371.988281 150.648438 368.546875 154.023438 364.617188 156.738281 M 393.214844 147.664063 C 396.863281 140.101563 398.90625 131.625 398.90625 122.679688 C 398.90625 114.054688 397.007813 105.867188 393.605469 98.515625 C 393.640625 97.519531 393.660156 96.519531 393.660156 95.515625 C 393.660156 83.496094 390.96875 72.09375 386.152344 61.882813 C 396.953125 74.902344 403.453125 91.613281 403.453125 109.816406 C 403.453125 123.605469 399.722656 136.542969 393.214844 147.664063 " fill="white"/>
<path style=" stroke:none;fill-rule:nonzero;fill:rgb(10.9375%,68.565369%,87.075806%);fill-opacity:1;" d="M 328.253906 185.015625 C 308.953125 185.015625 291.328125 177.707031 278 165.714844 C 288.933594 171.425781 301.359375 174.65625 314.523438 174.65625 C 315.019531 174.65625 315.511719 174.652344 316.003906 174.644531 C 323.613281 178.34375 332.152344 180.417969 341.167969 180.417969 C 350.195313 180.417969 358.742188 178.335938 366.359375 174.628906 C 355.179688 181.226563 342.148438 185.015625 328.253906 185.015625 M 364.617188 156.738281 C 368.292969 153.726563 371.691406 150.390625 374.773438 146.773438 C 371.988281 150.648438 368.546875 154.023438 364.617188 156.738281 M 393.214844 147.664063 C 396.863281 140.101563 398.90625 131.625 398.90625 122.679688 C 398.90625 114.054688 397.007813 105.867188 393.605469 98.515625 C 393.640625 97.519531 393.660156 96.519531 393.660156 95.515625 C 393.660156 83.496094 390.96875 72.09375 386.152344 61.882813 C 396.953125 74.902344 403.453125 91.613281 403.453125 109.816406 C 403.453125 123.605469 399.722656 136.542969 393.214844 147.664063 " fill="white"/>
<path style=" stroke:none;fill-rule:nonzero;fill:rgb(93.299866%,96.099854%,98.399353%);fill-opacity:1;" d="M 341.167969 180.417969 C 332.152344 180.417969 323.613281 178.34375 316.003906 174.644531 C 308.71875 171.101563 302.285156 166.070313 297.101563 159.953125 C 306.148438 165.59375 316.828125 168.855469 328.253906 168.855469 C 340.175781 168.855469 351.285156 165.304688 360.578125 159.199219 C 361.972656 158.457031 363.324219 157.632813 364.617188 156.738281 C 368.546875 154.023438 371.988281 150.648438 374.773438 146.773438 C 375.878906 145.234375 376.882813 143.621094 377.769531 141.9375 C 383.792969 132.683594 387.292969 121.652344 387.292969 109.816406 C 387.292969 98.304688 383.980469 87.550781 378.257813 78.460938 C 384.738281 83.902344 390.011719 90.746094 393.605469 98.515625 C 397.007813 105.867188 398.90625 114.054688 398.90625 122.679688 C 398.90625 131.625 396.863281 140.101563 393.214844 147.664063 C 386.714844 158.78125 377.445313 168.085938 366.359375 174.628906 C 358.742188 178.335938 350.195313 180.417969 341.167969 180.417969 " fill="white"/>
<path style=" stroke:none;fill-rule:nonzero;fill:rgb(10.9375%,68.565369%,87.075806%);fill-opacity:1;" d="M 341.167969 180.417969 C 332.152344 180.417969 323.613281 178.34375 316.003906 174.644531 C 308.71875 171.101563 302.285156 166.070313 297.101563 159.953125 C 306.148438 165.59375 316.828125 168.855469 328.253906 168.855469 C 340.175781 168.855469 351.285156 165.304688 360.578125 159.199219 C 361.972656 158.457031 363.324219 157.632813 364.617188 156.738281 C 368.546875 154.023438 371.988281 150.648438 374.773438 146.773438 C 375.878906 145.234375 376.882813 143.621094 377.769531 141.9375 C 383.792969 132.683594 387.292969 121.652344 387.292969 109.816406 C 387.292969 98.304688 383.980469 87.550781 378.257813 78.460938 C 384.738281 83.902344 390.011719 90.746094 393.605469 98.515625 C 397.007813 105.867188 398.90625 114.054688 398.90625 122.679688 C 398.90625 131.625 396.863281 140.101563 393.214844 147.664063 C 386.714844 158.78125 377.445313 168.085938 366.359375 174.628906 C 358.742188 178.335938 350.195313 180.417969 341.167969 180.417969 " fill="white"/>
</g>
</svg>
