<?xml version="1.0" encoding="utf-8"?>
<!-- Generator: Adobe Illustrator 19.2.1, SVG Export Plug-In . SVG Version: 6.00 Build 0)  -->
<svg version="1.1" id="layer" xmlns="http://www.w3.org/2000/svg" xmlns:xlink="http://www.w3.org/1999/xlink" x="0px" y="0px"
	 viewBox="0 0 652 652" style="enable-background:new 0 0 652 652;" xml:space="preserve">
<style type="text/css">
	.st0{fill:white;}
	.st1{fill:none;stroke:white;stroke-width:3.0151;}
	.st2{fill:white;}
	.st3{fill:white;}
</style>
<g id="Layer_2">
	<g id="Layer_1-2">
		<path class="st0" d="M59.8,329.3c-0.1-0.9-0.4-1.7-0.8-2.4c-0.4-0.8-1.1-1.5-1.8-2c-1-0.6-2-1.1-3.1-1.4c-1.6-0.4-3.2-0.7-4.9-0.9
			c-1.9-0.2-4.3-0.3-7-0.3h-6.1c-2,0-4-0.1-6-0.3c-1.2-0.1-2.5-0.5-3.6-1.1c-0.8-0.4-1.4-1.1-1.7-2c-0.3-1-0.5-2.1-0.5-3.1
			c0-1.1,0.2-2.2,0.6-3.2c0.5-0.9,1.2-1.7,2.2-2.1c1.3-0.6,2.7-1,4.1-1.2c2.1-0.3,4.3-0.4,6.4-0.4h5.9c2.2,0,4.1,0,5.6,0.2
			c1.2,0,2.5,0.3,3.6,0.8c0.9,0.3,1.6,1,2,1.8c0.4,1,0.7,2.2,0.6,3.3h4.4c0-1-0.1-2-0.3-3c-0.2-0.9-0.5-1.7-1-2.4
			c-0.5-0.7-1.1-1.4-1.9-1.9c-0.9-0.6-1.9-1-3-1.3c-1.4-0.4-2.8-0.6-4.3-0.8c-1.9-0.2-3.9-0.3-5.8-0.3h-5.9c-2.2,0-4.3,0.1-6.5,0.3
			c-1.6,0.2-3.2,0.5-4.7,1c-1.1,0.3-2.2,0.9-3.2,1.5c-0.8,0.6-1.5,1.3-2,2.1c-0.5,0.8-0.8,1.7-1,2.6c-0.2,1-0.3,2-0.3,3
			c0,1,0,2,0.2,3c0.1,0.9,0.4,1.7,0.7,2.5c0.4,0.8,1,1.4,1.6,2c0.8,0.7,1.8,1.2,2.7,1.5c1.4,0.4,2.9,0.7,4.4,0.9
			c2.1,0.2,4.2,0.3,6.3,0.3h6.1c2,0,3.7,0,5.1,0.1c1.2,0.1,2.4,0.2,3.6,0.4c0.8,0.2,1.6,0.4,2.4,0.8c0.5,0.3,1,0.7,1.4,1.1
			c0.3,0.5,0.6,1,0.7,1.6c0.1,0.7,0.2,1.4,0.2,2c0,1.1-0.2,2.2-0.6,3.1c-0.5,0.9-1.3,1.6-2.3,2c-1.4,0.6-3,0.9-4.5,1.1
			c-2.4,0.2-4.9,0.3-7.3,0.3h-4.4c-2.2,0-4.1,0-5.6-0.1c-1.2,0-2.5-0.3-3.6-0.7c-0.8-0.3-1.5-1-2-1.8c-0.5-1-0.7-2.1-0.7-3.2H20
			c0,1,0.1,2,0.3,3c0.2,0.9,0.5,1.7,1,2.4c0.5,0.7,1.1,1.4,1.9,1.9c0.9,0.6,1.9,1,3,1.3c1.4,0.4,2.8,0.6,4.3,0.8
			c1.7,0.2,3.6,0.2,5.8,0.2h4.4c2.7,0,5.1-0.1,7.1-0.3c1.7-0.2,3.5-0.5,5.1-0.9c1.2-0.3,2.4-0.8,3.5-1.5c0.8-0.5,1.6-1.2,2.1-2
			c0.5-0.8,0.9-1.6,1.1-2.5c0.2-1,0.3-2,0.3-3C60,331.2,59.9,330.3,59.8,329.3"/>
		<path class="st1" d="M59.8,329.3c-0.1-0.9-0.4-1.7-0.8-2.4c-0.4-0.8-1.1-1.5-1.8-2c-1-0.6-2-1.1-3.1-1.4c-1.6-0.4-3.2-0.7-4.9-0.9
			c-1.9-0.2-4.3-0.3-7-0.3h-6.1c-2,0-4-0.1-6-0.3c-1.2-0.1-2.5-0.5-3.6-1.1c-0.8-0.4-1.4-1.1-1.7-2c-0.3-1-0.5-2.1-0.5-3.1
			c0-1.1,0.2-2.2,0.6-3.2c0.5-0.9,1.2-1.7,2.2-2.1c1.3-0.6,2.7-1,4.1-1.2c2.1-0.3,4.3-0.4,6.4-0.4h5.9c2.2,0,4.1,0,5.6,0.2
			c1.2,0,2.5,0.3,3.6,0.8c0.9,0.3,1.6,1,2,1.8c0.4,1,0.7,2.2,0.6,3.3h4.4c0-1-0.1-2-0.3-3c-0.2-0.9-0.5-1.7-1-2.4
			c-0.5-0.7-1.1-1.4-1.9-1.9c-0.9-0.6-1.9-1-3-1.3c-1.4-0.4-2.8-0.6-4.3-0.8c-1.9-0.2-3.9-0.3-5.8-0.3h-5.9c-2.2,0-4.3,0.1-6.5,0.3
			c-1.6,0.2-3.2,0.5-4.7,1c-1.1,0.3-2.2,0.9-3.2,1.5c-0.8,0.6-1.5,1.3-2,2.1c-0.5,0.8-0.8,1.7-1,2.6c-0.2,1-0.3,2-0.3,3
			c0,1,0,2,0.2,3c0.1,0.9,0.4,1.7,0.7,2.5c0.4,0.8,1,1.4,1.6,2c0.8,0.7,1.8,1.2,2.7,1.5c1.4,0.4,2.9,0.7,4.4,0.9
			c2.1,0.2,4.2,0.3,6.3,0.3h6.1c2,0,3.7,0,5.1,0.1c1.2,0.1,2.4,0.2,3.6,0.4c0.8,0.2,1.6,0.4,2.4,0.8c0.5,0.3,1,0.7,1.4,1.1
			c0.3,0.5,0.6,1,0.7,1.6c0.1,0.7,0.2,1.4,0.2,2c0,1.1-0.2,2.2-0.6,3.1c-0.5,0.9-1.3,1.6-2.3,2c-1.4,0.6-3,0.9-4.5,1.1
			c-2.4,0.2-4.9,0.3-7.3,0.3h-4.4c-2.2,0-4.1,0-5.6-0.1c-1.2,0-2.5-0.3-3.6-0.7c-0.8-0.3-1.5-1-2-1.8c-0.5-1-0.7-2.1-0.7-3.2H20
			c0,1,0.1,2,0.3,3c0.2,0.9,0.5,1.7,1,2.4c0.5,0.7,1.1,1.4,1.9,1.9c0.9,0.6,1.9,1,3,1.3c1.4,0.4,2.8,0.6,4.3,0.8
			c1.7,0.2,3.6,0.2,5.8,0.2h4.4c2.7,0,5.1-0.1,7.1-0.3c1.7-0.2,3.5-0.5,5.1-0.9c1.2-0.3,2.4-0.8,3.5-1.5c0.8-0.5,1.6-1.2,2.1-2
			c0.5-0.8,0.9-1.6,1.1-2.5c0.2-1,0.3-2,0.3-3C60,331.2,59.9,330.3,59.8,329.3z"/>
		<path class="st0" d="M78.5,305.5h26.7c1.9,0,3.7,0.1,5.6,0.3c1.3,0.1,2.5,0.4,3.8,0.9c0.9,0.3,1.6,0.8,2.3,1.4
			c0.5,0.6,0.9,1.2,1.2,2c0.3,0.8,0.4,1.7,0.4,2.6c0,1,0.1,2,0.1,3.2c0,1.2,0,2.3-0.1,3.3c0,0.9-0.2,1.9-0.5,2.8
			c-0.3,0.8-0.8,1.6-1.4,2.2c-0.8,0.7-1.8,1.2-2.8,1.6c-1.5,0.5-3,0.8-4.6,1c-2.3,0.2-4.6,0.3-6.9,0.3H82.9V341h-4.4V305.5
			 M82.9,323.2h19.2c2,0,3.6,0,5-0.1c1.1,0,2.2-0.2,3.4-0.4c0.7-0.1,1.4-0.4,2-0.8c0.5-0.3,0.8-0.8,1.1-1.3c0.2-0.6,0.4-1.3,0.4-2
			c0-0.8,0-1.7,0-2.8s0-1.9,0-2.6c0-0.6-0.2-1.2-0.4-1.8c-0.2-0.5-0.6-0.9-1.1-1.2c-0.6-0.3-1.3-0.6-2-0.7c-1.1-0.2-2.2-0.3-3.4-0.3
			c-1.3,0-3-0.1-5-0.1H82.9L82.9,323.2z"/>
		<path class="st1" d="M78.5,305.5h26.7c1.9,0,3.7,0.1,5.6,0.3c1.3,0.1,2.5,0.4,3.8,0.9c0.9,0.3,1.6,0.8,2.3,1.4
			c0.5,0.6,0.9,1.2,1.2,2c0.3,0.8,0.4,1.7,0.4,2.6c0,1,0.1,2,0.1,3.2c0,1.2,0,2.3-0.1,3.3c0,0.9-0.2,1.9-0.5,2.8
			c-0.3,0.8-0.8,1.6-1.4,2.2c-0.8,0.7-1.8,1.2-2.8,1.6c-1.5,0.5-3,0.8-4.6,1c-2.3,0.2-4.6,0.3-6.9,0.3H82.9V341h-4.4V305.5z
			 M82.9,323.2h19.2c2,0,3.6,0,5-0.1c1.1,0,2.2-0.2,3.4-0.4c0.7-0.1,1.4-0.4,2-0.8c0.5-0.3,0.8-0.8,1.1-1.3c0.2-0.6,0.4-1.3,0.4-2
			c0-0.8,0-1.7,0-2.8s0-1.9,0-2.6c0-0.6-0.2-1.2-0.4-1.8c-0.2-0.5-0.6-0.9-1.1-1.2c-0.6-0.3-1.3-0.6-2-0.7c-1.1-0.2-2.2-0.3-3.4-0.3
			c-1.3,0-3-0.1-5-0.1H82.9L82.9,323.2z"/>
		<path class="st0" d="M151,305.5h-6.4L124.3,341h5.1l4.6-8.1h16c-0.7-1.2-1.5-2.5-2.3-3.7h-11.6l11.8-20.7l18.5,32.6h4.7L151,305.5
			"/>
		<path class="st1" d="M151,305.5h-6.4L124.3,341h5.1l4.6-8.1h16c-0.7-1.2-1.5-2.5-2.3-3.7h-11.6l11.8-20.7l18.5,32.6h4.7L151,305.5
			z"/>
		<path class="st0" d="M221.7,316.6c0.1-1.5-0.2-3-0.6-4.4c-0.3-1-1-1.9-2-2.5c-1.1-0.6-2.4-1-3.6-1.1c-1.5-0.2-3.4-0.2-5.6-0.2
			h-10.4c-2,0-3.6,0-4.9,0.2c-1.1,0.1-2.3,0.3-3.4,0.7c-0.8,0.3-1.5,0.8-2,1.5c-0.5,0.8-0.9,1.7-1,2.6c-0.2,1.3-0.4,2.7-0.4,4v5.7
			c0,2.2,0,4.1,0.1,5.7c0,1.4,0.1,2.7,0.4,4c0.1,0.9,0.5,1.8,1,2.6c0.5,0.7,1.2,1.2,2,1.5c1.1,0.4,2.2,0.6,3.4,0.7
			c1.3,0.1,3,0.2,4.9,0.2h10.4c1.7,0,3.2,0,4.5-0.1c1.1-0.1,2.1-0.2,3.2-0.5c0.8-0.2,1.5-0.5,2.1-1c0.5-0.4,1-1,1.3-1.6
			c0.3-0.7,0.5-1.5,0.6-2.4c0.1-1.1,0.2-2.2,0.2-3.2h4.4c0,1.3-0.1,2.7-0.3,4c-0.2,1.1-0.5,2.2-1,3.2c-0.5,0.9-1.1,1.7-1.9,2.4
			c-0.9,0.7-1.9,1.3-3,1.7c-1.4,0.5-2.8,0.8-4.3,1c-1.9,0.2-3.9,0.3-5.8,0.3h-10.4c-2.3,0-4.6-0.1-6.9-0.5c-1.6-0.3-3.2-0.8-4.6-1.5
			c-1.1-0.6-2.1-1.5-2.8-2.5c-0.7-1.1-1.2-2.3-1.4-3.6c-0.3-1.5-0.5-3.1-0.5-4.6c0-1.7-0.1-3.6-0.1-5.7s0-4,0.1-5.7
			c0-1.6,0.2-3.1,0.5-4.7c0.3-1.3,0.8-2.5,1.4-3.6c0.7-1.1,1.7-1.9,2.8-2.5c1.4-0.8,3-1.3,4.6-1.6c2.3-0.4,4.6-0.5,6.9-0.5h10.4
			c1.9,0,3.9,0.1,5.8,0.3c1.5,0.2,2.9,0.5,4.3,1c1.1,0.4,2.1,0.9,3,1.6c0.8,0.6,1.4,1.4,1.9,2.3c0.5,0.9,0.8,1.9,1,3
			c0.2,1.2,0.3,2.5,0.3,3.7L221.7,316.6"/>
		<path class="st1" d="M221.7,316.6c0.1-1.5-0.2-3-0.6-4.4c-0.3-1-1-1.9-2-2.5c-1.1-0.6-2.4-1-3.6-1.1c-1.5-0.2-3.4-0.2-5.6-0.2
			h-10.4c-2,0-3.6,0-4.9,0.2c-1.1,0.1-2.3,0.3-3.4,0.7c-0.8,0.3-1.5,0.8-2,1.5c-0.5,0.8-0.9,1.7-1,2.6c-0.2,1.3-0.4,2.7-0.4,4v5.7
			c0,2.2,0,4.1,0.1,5.7c0,1.4,0.1,2.7,0.4,4c0.1,0.9,0.5,1.8,1,2.6c0.5,0.7,1.2,1.2,2,1.5c1.1,0.4,2.2,0.6,3.4,0.7
			c1.3,0.1,3,0.2,4.9,0.2h10.4c1.7,0,3.2,0,4.5-0.1c1.1-0.1,2.1-0.2,3.2-0.5c0.8-0.2,1.5-0.5,2.1-1c0.5-0.4,1-1,1.3-1.6
			c0.3-0.7,0.5-1.5,0.6-2.4c0.1-1.1,0.2-2.2,0.2-3.2h4.4c0,1.3-0.1,2.7-0.3,4c-0.2,1.1-0.5,2.2-1,3.2c-0.5,0.9-1.1,1.7-1.9,2.4
			c-0.9,0.7-1.9,1.3-3,1.7c-1.4,0.5-2.8,0.8-4.3,1c-1.9,0.2-3.9,0.3-5.8,0.3h-10.4c-2.3,0-4.6-0.1-6.9-0.5c-1.6-0.3-3.2-0.8-4.6-1.5
			c-1.1-0.6-2.1-1.5-2.8-2.5c-0.7-1.1-1.2-2.3-1.4-3.6c-0.3-1.5-0.5-3.1-0.5-4.6c0-1.7-0.1-3.6-0.1-5.7s0-4,0.1-5.7
			c0-1.6,0.2-3.1,0.5-4.7c0.3-1.3,0.8-2.5,1.4-3.6c0.7-1.1,1.7-1.9,2.8-2.5c1.4-0.8,3-1.3,4.6-1.6c2.3-0.4,4.6-0.5,6.9-0.5h10.4
			c1.9,0,3.9,0.1,5.8,0.3c1.5,0.2,2.9,0.5,4.3,1c1.1,0.4,2.1,0.9,3,1.6c0.8,0.6,1.4,1.4,1.9,2.3c0.5,0.9,0.8,1.9,1,3
			c0.2,1.2,0.3,2.5,0.3,3.7L221.7,316.6L221.7,316.6z"/>
		<path class="st0" d="M246,341v-35.5h35.5v3.7h-31.1V321H280v3.7h-29.6v12.6h31.1v3.7H246"/>
		<path class="st1" d="M246,341v-35.5h35.5v3.7h-31.1V321H280v3.7h-29.6v12.6h31.1v3.7H246L246,341z"/>
		<path class="st0" d="M302.6,341v-35.5h34v3.7H307V321h28.1v3.7H307V341H302.6"/>
		<path class="st1" d="M302.6,341v-35.5h34v3.7H307V321h28.1v3.7H307V341H302.6z"/>
		<path class="st0" d="M353.2,341v-35.5h4.4v31.8h28.1v3.7H353.2"/>
		<path class="st1" d="M353.2,341v-35.5h4.4v31.8h28.1v3.7H353.2z"/>
		<path class="st0" d="M401.5,305.5h4.4V341h-4.4V305.5z"/>
		<path class="st1" d="M401.5,305.5h4.4V341h-4.4V305.5z"/>
		<path class="st0" d="M465.8,316.6c0.1-1.5-0.2-3-0.6-4.4c-0.3-1-1-1.9-2-2.5c-1.1-0.6-2.4-1-3.7-1.1c-1.5-0.1-3.4-0.2-5.6-0.2H442
			c-2,0-3.6,0-5,0.2c-1.1,0.1-2.3,0.3-3.3,0.7c-0.8,0.3-1.5,0.8-2,1.5c-0.5,0.8-0.9,1.7-1,2.6c-0.2,1.3-0.4,2.7-0.4,4v5.7
			c0,2.2,0,4.1,0.1,5.7c0,1.4,0.1,2.7,0.4,4c0.1,0.9,0.5,1.8,1,2.6c0.5,0.7,1.2,1.2,2,1.5c1.1,0.4,2.2,0.6,3.3,0.7
			c1.4,0.1,3,0.2,5,0.2h11.9c1.7,0,3.2,0,4.5-0.1c1.1-0.1,2.1-0.2,3.2-0.5c0.8-0.2,1.5-0.5,2.1-1c0.5-0.4,1-1,1.3-1.6
			c0.3-0.7,0.5-1.5,0.6-2.4c0.1-1.1,0.2-2.2,0.2-3.2v-2.3h-17.8v-3.7h22.3v5.9c0,1.3-0.1,2.7-0.3,4c-0.2,1.1-0.5,2.2-1,3.2
			c-0.5,0.9-1.1,1.7-1.9,2.4c-0.9,0.7-1.9,1.3-3,1.7c-1.4,0.5-2.8,0.8-4.3,1c-1.9,0.2-3.9,0.3-5.8,0.3H442c-2.3,0-4.6-0.1-6.9-0.5
			c-1.6-0.3-3.2-0.8-4.6-1.5c-1.1-0.6-2.1-1.5-2.8-2.5c-0.7-1.1-1.2-2.3-1.4-3.6c-0.3-1.5-0.5-3.1-0.5-4.6c0-1.7-0.1-3.6-0.1-5.7
			s0-4,0.1-5.7c0-1.6,0.2-3.1,0.5-4.7c0.3-1.3,0.7-2.5,1.4-3.6c0.7-1.1,1.7-1.9,2.8-2.5c1.4-0.8,3-1.3,4.6-1.5
			c2.3-0.4,4.6-0.5,6.9-0.5h11.8c1.9,0,3.9,0.1,5.8,0.3c1.5,0.2,2.9,0.5,4.3,1c1.1,0.4,2.1,0.9,3,1.6c0.8,0.6,1.4,1.4,1.9,2.3
			c0.5,0.9,0.8,1.9,1,3c0.2,1.2,0.3,2.5,0.3,3.7L465.8,316.6"/>
		<path class="st1" d="M465.8,316.6c0.1-1.5-0.2-3-0.6-4.4c-0.3-1-1-1.9-2-2.5c-1.1-0.6-2.4-1-3.7-1.1c-1.5-0.1-3.4-0.2-5.6-0.2H442
			c-2,0-3.6,0-5,0.2c-1.1,0.1-2.3,0.3-3.3,0.7c-0.8,0.3-1.5,0.8-2,1.5c-0.5,0.8-0.9,1.7-1,2.6c-0.2,1.3-0.4,2.7-0.4,4v5.7
			c0,2.2,0,4.1,0.1,5.7c0,1.4,0.1,2.7,0.4,4c0.1,0.9,0.5,1.8,1,2.6c0.5,0.7,1.2,1.2,2,1.5c1.1,0.4,2.2,0.6,3.3,0.7
			c1.4,0.1,3,0.2,5,0.2h11.9c1.7,0,3.2,0,4.5-0.1c1.1-0.1,2.1-0.2,3.2-0.5c0.8-0.2,1.5-0.5,2.1-1c0.5-0.4,1-1,1.3-1.6
			c0.3-0.7,0.5-1.5,0.6-2.4c0.1-1.1,0.2-2.2,0.2-3.2v-2.3h-17.8v-3.7h22.3v5.9c0,1.3-0.1,2.7-0.3,4c-0.2,1.1-0.5,2.2-1,3.2
			c-0.5,0.9-1.1,1.7-1.9,2.4c-0.9,0.7-1.9,1.3-3,1.7c-1.4,0.5-2.8,0.8-4.3,1c-1.9,0.2-3.9,0.3-5.8,0.3H442c-2.3,0-4.6-0.1-6.9-0.5
			c-1.6-0.3-3.2-0.8-4.6-1.5c-1.1-0.6-2.1-1.5-2.8-2.5c-0.7-1.1-1.2-2.3-1.4-3.6c-0.3-1.5-0.5-3.1-0.5-4.6c0-1.7-0.1-3.6-0.1-5.7
			s0-4,0.1-5.7c0-1.6,0.2-3.1,0.5-4.7c0.3-1.3,0.7-2.5,1.4-3.6c0.7-1.1,1.7-1.9,2.8-2.5c1.4-0.8,3-1.3,4.6-1.5
			c2.3-0.4,4.6-0.5,6.9-0.5h11.8c1.9,0,3.9,0.1,5.8,0.3c1.5,0.2,2.9,0.5,4.3,1c1.1,0.4,2.1,0.9,3,1.6c0.8,0.6,1.4,1.4,1.9,2.3
			c0.5,0.9,0.8,1.9,1,3c0.2,1.2,0.3,2.5,0.3,3.7L465.8,316.6L465.8,316.6z"/>
		<path class="st0" d="M527.9,305.5h4.4V341h-4.4v-16.3h-32.6V341h-4.5v-35.5h4.5V321h32.6V305.5"/>
		<path class="st1" d="M527.9,305.5h4.4V341h-4.4v-16.3h-32.6V341h-4.5v-35.5h4.5V321h32.6V305.5z"/>
		<path class="st0" d="M586,305.5v3.7h-17.8V341h-4.4v-31.8H546v-3.7H586"/>
		<path class="st1" d="M586,305.5v3.7h-17.8V341h-4.4v-31.8H546v-3.7H586L586,305.5z"/>
		<path class="st2" d="M594.3,246.3c0-6.6,5.6-12,12.6-12s12.6,5.4,12.6,12c0,6.6-5.6,12-12.6,12S594.3,252.9,594.3,246.3"/>
		<path class="st3" d="M551.6,286.2h0.8c12.8-17.7,26.9-29.9,38.7-33.9c-0.5-1.3-0.9-2.7-1.1-4.1C578,254.4,564.2,267.9,551.6,286.2
			 M613,261.1c6.6,15.5,0.8,46.4-15.9,77.6c-20.8,39-50.7,63.6-66.8,55c-8.6-4.6-8.1-20.4-5.8-37.6h-1.4
			c-3.7,20.3-4.6,38.6,4.8,43.7c16.7,8.9,48.5-18.3,71.2-60.7c17.3-32.3,24.2-64.2,19.2-81.4C616.8,259.1,615,260.3,613,261.1"/>
	</g>
</g>
</svg>
