<?xml version="1.0" encoding="utf-8"?>
<!-- Generator: Adobe Illustrator 19.2.1, SVG Export Plug-In . SVG Version: 6.00 Build 0)  -->
<svg version="1.1" id="layer" xmlns="http://www.w3.org/2000/svg" xmlns:xlink="http://www.w3.org/1999/xlink" x="0px" y="0px"
	 viewBox="0 0 652 652" style="enable-background:new 0 0 652 652;" xml:space="preserve">
<style type="text/css">
	.st0{fill:white;}
	.st1{fill:white;}
</style>
<path class="st0" d="M260.3,269.3c14.2,0,26.6,5.2,36.8,15.5c10.2,10.2,15.5,23,15.5,37.9c0,14.6-5,27.2-15.3,37.4
	c-10.2,10.2-22.4,15.3-37,15.3c-15.1,0-27.8-5.2-37.9-15.7c-10-10.5-15.1-23-15.1-37.4c0-9.6,2.3-18.6,7.1-26.6
	c4.6-8.2,11.1-14.4,19.2-19.2C242.1,271.6,250.9,269.3,260.3,269.3z M260.1,288.2c-9.4,0-17.1,3.3-23.6,9.8s-9.6,14.8-9.6,24.9
	c0,11.1,4,20.1,12.1,26.6c6.3,5,13.4,7.5,21.5,7.5c9.2,0,16.9-3.3,23.2-9.8c6.5-6.7,9.6-14.6,9.6-24.5c0-9.6-3.1-17.8-9.6-24.5
	S269.3,288.2,260.1,288.2z M376,313.5l27.4-41.8h-21.5l-16.7,25.3L376,313.5z M376,327.7l-10.9,16.5l18.6,28.4h21.7L376,327.7z"/>
<path class="st1" d="M339.2,271.6h-21.5l32,48.9l-34.1,52.1h21.5l34.1-52.1L339.2,271.6z"/>
<path class="st0" d="M423.4,271.8h55.2v18.8h-36v18.2h36v18.4h-36v26.6h36v18.8h-55.2V271.8z M505.8,271.8h19.2v82.6h28v18.4h-47.3
	L505.8,271.8L505.8,271.8z M573.2,271.8h19.2v82.6h28v18.4h-47.3V271.8z"/>
<g>
	<path class="st0" d="M178.8,372.9l-26.6-41.2c-2.7,0-6.5-0.2-11.3-0.4v41.6h-18.4v-101h27.6c25.3,0,38.1,10,38.1,29.7
		c0,5.9-1.7,11.3-5.2,16.1c-3.6,4.8-7.9,8.4-13.2,10.2l29.5,45C199.3,372.9,178.8,372.9,178.8,372.9z M140.9,288.6v27.8
		c3.3,0.2,5.9,0.4,7.5,0.4c7.3,0,12.8-1,16.3-3.1c3.6-2.1,5.2-6.1,5.2-12.1c0-4.8-1.9-8.4-5.4-10.2c-4-2.3-9.6-3.1-17.6-3.1
		C145.1,288.2,143,288.2,140.9,288.6z"/>
</g>
<path class="st0" d="M20.4,271.8h83.2V289H72.3v83.9H52.9v-83.7H20.4V271.8z"/>
</svg>
